<svg width="620" height="400" viewBox="0 0 620 400" fill="none" xmlns="http://www.w3.org/2000/svg">
<path d="M1.00045 297.411C43.6608 299.41 86.3211 301.41 112.394 300.072C146.81 298.306 161.837 281.56 175.449 265.101C182.59 256.468 189.131 246.196 197.339 228.662C205.546 211.128 214.947 186.37 221.018 168.686C230.373 141.434 232.853 117.015 231.857 93.7651C231.197 78.3435 214.918 73.2265 202.23 68.509C190.092 63.996 176.369 66.0734 163.43 69.9809C151.378 73.6203 143.017 83.8789 136.586 92.2066C130.656 99.8867 130.48 110.003 131.506 118.946C132.665 129.036 142.038 137.777 154.353 146.125C168.489 155.707 187.894 159.179 207.814 163.215C228.363 167.378 249.744 164.669 269.589 160.306C288.478 156.154 305.073 146.12 319.614 135.781C333.297 126.051 342.149 111.194 350.277 94.9284C367.263 60.9389 367.673 50.3062 372.01 47.0375C377.688 42.7579 397.082 56.2848 426.963 77.0781C441.957 87.5121 458.073 95.0982 473.88 100.947C505.071 110.01 527.739 111.94 540.606 108.322C546.656 106.087 551.731 103.039 556.959 99.8989" stroke="#5A7196" stroke-width="2" stroke-linecap="round" stroke-dasharray="4 4"/>
<path d="M607.44 87.5748C606.509 86.879 601.176 84.783 593.297 86.6572C590.975 87.2094 580.304 89.2886 580.304 89.2886C580.304 89.2886 574.755 84.5875 567.657 78.6185L571.482 77.931C572.366 77.7718 572.936 76.9024 572.728 76.0297L572.392 74.616C572.184 73.7422 571.284 73.2222 570.423 73.4796L563.863 75.4309C560.319 72.4573 556.585 69.3335 553.079 66.4192L556.495 65.8047C557.38 65.6455 557.949 64.7761 557.741 63.9034L557.405 62.4897C557.197 61.6158 556.298 61.097 555.436 61.3533L549.205 63.2068C542.996 58.0778 538.186 54.1963 537.64 54.0233C536.417 53.6363 533.2 53.3049 531.606 53.159C531.041 53.1077 530.497 53.3799 530.2 53.8622C529.89 54.3659 529.906 55.0045 530.243 55.491L556.997 94.221C556.997 94.221 535.514 100.401 531.996 101.697C528.479 102.993 527.031 103.337 527.031 103.337L513.334 92.0694L506.369 91.7378L516.396 108.161L511.816 110.779L516.83 111.268L515.015 130.661L521.409 127.305L528.718 110.429L538.441 109.492L558.992 105.827L559.101 108.86L553.732 151.699C553.658 152.287 553.954 152.859 554.477 153.14C554.919 153.378 555.453 153.367 555.885 153.111L560.825 150.195L566.89 136.335L573.011 135.234C573.896 135.075 574.466 134.206 574.258 133.333L573.922 131.919C573.714 131.046 572.814 130.527 571.953 130.783L568.926 131.684L574.561 118.806L580.934 117.66C581.819 117.5 582.389 116.631 582.181 115.758L581.845 114.345C581.637 113.471 580.737 112.952 579.875 113.208L576.581 114.189L582.93 99.6775C582.93 99.6775 597.447 96.377 601.738 93.8273C606.025 91.276 608.37 88.2706 607.44 87.5748Z" fill="#5A7196"/>
</svg>
