<svg width="40" height="40" viewBox="0 0 40 40" fill="none" xmlns="http://www.w3.org/2000/svg">
<rect width="40" height="40" rx="6" fill="#162752"/>
<path d="M20.0017 22H21.0017C22.1017 22 23.0017 21.1 23.0017 20V10H14.0017C12.5017 10 11.1917 10.83 10.5117 12.05" stroke="white" stroke-width="1.5" stroke-linecap="round" stroke-linejoin="round"/>
<path d="M10 25C10 26.66 11.34 28 13 28H14C14 26.9 14.9 26 16 26C17.1 26 18 26.9 18 28H22C22 26.9 22.9 26 24 26C25.1 26 26 26.9 26 28H27C28.66 28 30 26.66 30 25V22H27C26.45 22 26 21.55 26 21V18C26 17.45 26.45 17 27 17H28.29L26.58 14.01C26.22 13.39 25.56 13 24.84 13H23V20C23 21.1 22.1 22 21 22H20" stroke="white" stroke-width="1.5" stroke-linecap="round" stroke-linejoin="round"/>
<path d="M16 30C17.1046 30 18 29.1046 18 28C18 26.8954 17.1046 26 16 26C14.8954 26 14 26.8954 14 28C14 29.1046 14.8954 30 16 30Z" stroke="white" stroke-width="1.5" stroke-linecap="round" stroke-linejoin="round"/>
<path d="M24 30C25.1046 30 26 29.1046 26 28C26 26.8954 25.1046 26 24 26C22.8954 26 22 26.8954 22 28C22 29.1046 22.8954 30 24 30Z" stroke="white" stroke-width="1.5" stroke-linecap="round" stroke-linejoin="round"/>
<path d="M30 20V22H27C26.45 22 26 21.55 26 21V18C26 17.45 26.45 17 27 17H28.29L30 20Z" stroke="white" stroke-width="1.5" stroke-linecap="round" stroke-linejoin="round"/>
<path d="M10 16H16" stroke="white" stroke-width="1.5" stroke-linecap="round" stroke-linejoin="round"/>
<path d="M10 19H14" stroke="white" stroke-width="1.5" stroke-linecap="round" stroke-linejoin="round"/>
<path d="M10 22H12" stroke="white" stroke-width="1.5" stroke-linecap="round" stroke-linejoin="round"/>
</svg>
