<svg width="40" height="40" viewBox="0 0 40 40" fill="none" xmlns="http://www.w3.org/2000/svg">
<rect width="40" height="40" rx="6" fill="#162752"/>
<path d="M30 24.7397V12.6697C30 11.4697 29.02 10.5797 27.83 10.6797H27.77C25.67 10.8597 22.48 11.9297 20.7 13.0497L20.53 13.1597C20.24 13.3397 19.76 13.3397 19.47 13.1597L19.22 13.0097C17.44 11.8997 14.26 10.8397 12.16 10.6697C10.97 10.5697 10 11.4697 10 12.6597V24.7397C10 25.6997 10.78 26.5997 11.74 26.7197L12.03 26.7597C14.2 27.0497 17.55 28.1497 19.47 29.1997L19.51 29.2197C19.78 29.3697 20.21 29.3697 20.47 29.2197C22.39 28.1597 25.75 27.0497 27.93 26.7597L28.26 26.7197C29.22 26.5997 30 25.6997 30 24.7397Z" stroke="white" stroke-width="1.5" stroke-linecap="round" stroke-linejoin="round"/>
<path d="M20 13.4902V28.4902" stroke="white" stroke-width="1.5" stroke-linecap="round" stroke-linejoin="round"/>
<path d="M15.75 16.4902H13.5" stroke="white" stroke-width="1.5" stroke-linecap="round" stroke-linejoin="round"/>
<path d="M16.5 19.4902H13.5" stroke="white" stroke-width="1.5" stroke-linecap="round" stroke-linejoin="round"/>
</svg>
